<svg xmlns="http://www.w3.org/2000/svg" width="25" height="24" viewBox="0 0 18.417 17"><defs><style>.a{fill:#707070;}</style></defs><g transform="translate(-49 -300)"><path class="a" d="M20.021,6.75H18.25V7.756a.346.346,0,0,1-.354.335h-.708a.346.346,0,0,1-.354-.335V6.75h-8.5V7.756a.346.346,0,0,1-.354.335H7.271a.346.346,0,0,1-.354-.335V6.75H5.146A1.731,1.731,0,0,0,3.375,8.426v11.4A1.731,1.731,0,0,0,5.146,21.5H20.021a1.731,1.731,0,0,0,1.771-1.676V8.426A1.731,1.731,0,0,0,20.021,6.75Zm.354,12.571a.865.865,0,0,1-.885.838H5.677a.865.865,0,0,1-.885-.838V11.778a.346.346,0,0,1,.354-.335H20.021a.346.346,0,0,1,.354.335Z" transform="translate(45.625 295.5)"/><path class="a" d="M11.25,5.063a.564.564,0,0,0-.562-.562H9.563A.564.564,0,0,0,9,5.063V6.75h2.25Z" transform="translate(43.368 295.5)"/><path class="a" d="M27,5.063a.564.564,0,0,0-.562-.562H25.313a.564.564,0,0,0-.562.563V6.75H27Z" transform="translate(37.049 295.5)"/></g></svg>
