<svg xmlns="http://www.w3.org/2000/svg" width="25" height="24" viewBox="0 0 27.939 27.069"><defs><style>.a{fill:#ffc537;}</style></defs><path class="a" d="M15.047,2.987a1,1,0,0,1,1.905,0l2.6,8.158a1,1,0,0,0,.953.7h8.46a1,1,0,0,1,.595,1.8l-6.876,5.088a1,1,0,0,0-.358,1.108l2.619,8.21A1,1,0,0,1,23.4,29.158l-6.805-5.036a1,1,0,0,0-1.19,0L8.6,29.158a1,1,0,0,1-1.548-1.108l2.619-8.21a1,1,0,0,0-.358-1.108L2.437,13.645a1,1,0,0,1,.595-1.8h8.46a1,1,0,0,0,.953-.7Z" transform="translate(-2.03 -2.291)"/></svg>
