<svg xmlns="http://www.w3.org/2000/svg" width="18.642" height="18.642" viewBox="0 0 18.642 18.642"><defs><style>.a{fill:none;stroke:#707070;stroke-linecap:round;stroke-linejoin:round;stroke-width:1.5px;}</style></defs><g transform="translate(-0.75 -0.75)"><path class="a" d="M18.175,15.838A2.338,2.338,0,1,1,15.838,13.5,2.338,2.338,0,0,1,18.175,15.838Z" transform="translate(-5.767 -5.767)"/><path class="a" d="M15.837,12.409a1.286,1.286,0,0,0,.257,1.418l.047.047a1.559,1.559,0,1,1-2.205,2.205l-.047-.047a1.3,1.3,0,0,0-2.2.919v.132a1.558,1.558,0,1,1-3.117,0v-.07a1.286,1.286,0,0,0-.842-1.177,1.286,1.286,0,0,0-1.418.257l-.047.047a1.559,1.559,0,1,1-2.205-2.205l.047-.047a1.3,1.3,0,0,0-.919-2.2H3.058a1.558,1.558,0,1,1,0-3.117h.07a1.286,1.286,0,0,0,1.177-.842,1.286,1.286,0,0,0-.257-1.418L4,6.269A1.559,1.559,0,1,1,6.206,4.064l.047.047a1.286,1.286,0,0,0,1.418.257h.062a1.286,1.286,0,0,0,.779-1.177V3.058a1.558,1.558,0,1,1,3.117,0v.07a1.3,1.3,0,0,0,2.2.919L13.873,4a1.559,1.559,0,1,1,2.205,2.205l-.047.047a1.286,1.286,0,0,0-.257,1.418v.062a1.286,1.286,0,0,0,1.177.779h.132a1.558,1.558,0,1,1,0,3.117h-.07a1.286,1.286,0,0,0-1.177.779Z" transform="translate(0 0)"/></g></svg>
